<svg xmlns="http://www.w3.org/2000/svg" width="1275" height="940" viewBox="0 0 1275 940">
  <rect width="1275" height="940" fill="#ffffff"/>
  <rect x="47" y="48" width="1175" height="844" rx="8" fill="#f1f1f1" stroke="#9a9a9a" stroke-width="2"/>
  <rect x="48" y="49" width="1173" height="54" rx="8" fill="#d9d9dc"/>
  <text x="68" y="86" font-family="Arial, Helvetica, sans-serif" font-size="26" fill="#000000">New Project Wizard</text>
  <path d="M116 139 L254 139 Q254 139 254 167 L254 195 L116 195 L89 167 Z" fill="#f7f7f7" stroke="#c6c6c6" stroke-width="2"/>
  <text x="143" y="177" font-family="Arial, Helvetica, sans-serif" font-size="28" font-weight="700" fill="#000000">Back</text>
  <text x="351" y="178" font-family="Arial, Helvetica, sans-serif" font-size="34" font-weight="700" fill="#000000">Clone Git Repository</text>
  <line x1="48" y1="228" x2="1221" y2="228" stroke="#d5d5d5" stroke-width="2"/>
  <g transform="translate(112 259)">
    <rect x="51" y="0" width="14" height="157" rx="3" fill="#d6dee3"/>
    <rect x="4" y="86" width="114" height="22" rx="2" fill="#df3028"/>
    <rect x="5" y="27" width="114" height="22" rx="2" fill="#32c54b"/>
    <rect x="51" y="0" width="22" height="73" rx="2" fill="#32c54b"/>
    <path d="M64 121 A63 63 0 1 0 126 183 L88 183 A25 25 0 1 1 64 158 Z" fill="#465864" stroke="#293843" stroke-width="2"/>
  </g>
  <text x="343" y="276" font-family="Arial, Helvetica, sans-serif" font-size="29" fill="#000000">Repository URL:</text>
  <rect x="342" y="285" width="845" height="58" rx="9" fill="#ffffff" stroke="#87aeea" stroke-width="4"/>
  <text x="352" y="324" font-family="Menlo, Consolas, monospace" font-size="25" fill="#000000">github.com/erikwestlund/data-visualization-2026</text>
  <text x="343" y="383" font-family="Arial, Helvetica, sans-serif" font-size="29" fill="#000000">Project directory name:</text>
  <rect x="343" y="392" width="672" height="56" rx="7" fill="#ffffff" stroke="#9b9b9b" stroke-width="2"/>
  <text x="353" y="430" font-family="Menlo, Consolas, monospace" font-size="28" fill="#000000">data-visualization-2026</text>
  <text x="343" y="488" font-family="Arial, Helvetica, sans-serif" font-size="29" fill="#000000">Create project as subdirectory of:</text>
  <rect x="343" y="502" width="657" height="52" rx="7" fill="#ffffff" stroke="#9b9b9b" stroke-width="2"/>
  <text x="353" y="538" font-family="Menlo, Consolas, monospace" font-size="28" fill="#000000">~/Code/Testing</text>
  <rect x="1015" y="500" width="170" height="54" rx="12" fill="#f7f7f7" stroke="#bdbdbd" stroke-width="2"/>
  <text x="1044" y="537" font-family="Arial, Helvetica, sans-serif" font-size="29" fill="#000000">Browse...</text>
  <line x1="48" y1="757" x2="1221" y2="757" stroke="#d5d5d5" stroke-width="2"/>
  <rect x="84" y="820" width="27" height="27" rx="5" fill="#ffffff" stroke="#b7b7b7" stroke-width="2"/>
  <text x="119" y="842" font-family="Arial, Helvetica, sans-serif" font-size="29" fill="#000000">Open in new session</text>
  <rect x="779" y="813" width="229" height="55" rx="13" fill="#f7f7f7" stroke="#bdbdbd" stroke-width="2"/>
  <text x="798" y="852" font-family="Arial, Helvetica, sans-serif" font-size="29" font-weight="700" fill="#454545">Create Project</text>
  <rect x="1026" y="813" width="169" height="55" rx="13" fill="#f7f7f7" stroke="#bdbdbd" stroke-width="2"/>
  <text x="1069" y="851" font-family="Arial, Helvetica, sans-serif" font-size="29" fill="#000000">Cancel</text>
</svg>
