<svg xmlns="http://www.w3.org/2000/svg" width="1283" height="951" viewBox="0 0 1283 951">
  <rect width="1283" height="951" fill="#ffffff"/>
  <rect x="45" y="46" width="1176" height="844" rx="8" fill="#f1f1f1" stroke="#9a9a9a" stroke-width="2"/>
  <rect x="46" y="47" width="1174" height="55" rx="8" fill="#d9d9dc"/>
  <text x="66" y="85" font-family="Arial, Helvetica, sans-serif" font-size="26" fill="#000000">New Project Wizard</text>
  <path d="M116 137 L253 137 Q253 137 253 165 L253 193 L116 193 L88 165 Z" fill="#f7f7f7" stroke="#c6c6c6" stroke-width="2"/>
  <text x="142" y="175" font-family="Arial, Helvetica, sans-serif" font-size="28" font-weight="700" fill="#000000">Back</text>
  <text x="348" y="177" font-family="Arial, Helvetica, sans-serif" font-size="33" font-weight="700" fill="#000000">Create Project from Version Control</text>
  <line x1="46" y1="227" x2="1220" y2="227" stroke="#dddddd" stroke-width="2"/>
  <rect x="46" y="227" width="1174" height="175" fill="#ffffff" stroke="#dddddd"/>
  <rect x="46" y="403" width="1174" height="176" fill="#ffffff" stroke="#dddddd"/>
  <g transform="translate(120 246)">
    <rect x="29" y="0" width="14" height="112" rx="3" fill="#d6dee3"/>
    <rect x="0" y="51" width="70" height="14" rx="2" fill="#d83b36"/>
    <rect x="0" y="16" width="70" height="14" rx="2" fill="#31c44a"/>
    <rect x="28" y="0" width="14" height="43" rx="2" fill="#31c44a"/>
    <path d="M35 63 A34 34 0 1 0 69 97 L48 97 A13 13 0 1 1 35 84 Z" fill="#465864" stroke="#293843" stroke-width="2"/>
  </g>
  <text x="268" y="297" font-family="Arial, Helvetica, sans-serif" font-size="33" font-weight="700" fill="#000000">Git</text>
  <text x="268" y="337" font-family="Arial, Helvetica, sans-serif" font-size="28" fill="#6f6f6f">Clone a project from a Git repository</text>
  <text x="1154" y="327" font-family="Arial, Helvetica, sans-serif" font-size="56" fill="#777777">›</text>
  <g transform="translate(98 430)">
    <rect x="0" y="0" width="110" height="110" rx="13" fill="#85a4d2" stroke="#6f8dbb" stroke-width="2"/>
    <text x="13" y="71" font-family="Arial, Helvetica, sans-serif" font-size="43" font-weight="700" fill="#ffffff">SVN</text>
  </g>
  <text x="268" y="474" font-family="Arial, Helvetica, sans-serif" font-size="33" font-weight="700" fill="#000000">Subversion</text>
  <text x="268" y="513" font-family="Arial, Helvetica, sans-serif" font-size="28" fill="#6f6f6f">Checkout a project from a Subversion repository</text>
  <text x="1154" y="503" font-family="Arial, Helvetica, sans-serif" font-size="56" fill="#777777">›</text>
  <rect x="1024" y="811" width="169" height="55" rx="13" fill="#f7f7f7" stroke="#bdbdbd" stroke-width="2"/>
  <text x="1067" y="849" font-family="Arial, Helvetica, sans-serif" font-size="29" fill="#000000">Cancel</text>
</svg>
